<svg width="512" height="512" version="1.1" xmlns="http://www.w3.org/2000/svg"><path fill="rgb(0,0,0)" stroke="rgb(0,0,0)" stroke-width="1" opacity="0.7686274509803922" d="M 260.5 29 L 263 29.5 L 260.5 30 L 260.5 29 Z "></path><path fill="rgb(0,0,0)" stroke="rgb(0,0,0)" stroke-width="1" opacity="0.7686274509803922" d="M 249.5 31 L 248.5 33 L 249.5 31 Z "></path><path fill="rgb(0,0,0)" stroke="rgb(0,0,0)" stroke-width="1" opacity="0.7686274509803922" d="M 269.5 33 L 276.5 41 L 269.5 33 Z "></path><path fill="rgb(0,0,0)" stroke="rgb(0,0,0)" stroke-width="1" opacity="0.7686274509803922" d="M 243.5 36 L 237.5 43 L 243.5 36 Z "></path><path fill="rgb(0,0,0)" stroke="rgb(0,0,0)" stroke-width="1" opacity="0.7686274509803922" d="M 283.5 46 L 291.5 55 L 283.5 46 Z "></path><path fill="rgb(0,0,0)" stroke="rgb(0,0,0)" stroke-width="1" opacity="0.7686274509803922" d="M 231.5 47 L 224.5 55 L 231.5 47 Z "></path><path fill="rgb(0,0,0)" stroke="rgb(0,0,0)" stroke-width="1" opacity="0.7686274509803922" d="M 219.5 58 L 212.5 66 L 219.5 58 Z "></path><path fill="rgb(0,0,0)" stroke="rgb(0,0,0)" stroke-width="1" opacity="0.7686274509803922" d="M 298.5 60 L 307.5 70 L 298.5 60 Z "></path><path fill="rgb(0,0,0)" stroke="rgb(0,0,0)" stroke-width="1" opacity="0.7686274509803922" d="M 259.5 68 L 267.5 77 L 259.5 68 Z "></path><path fill="rgb(0,0,0)" stroke="rgb(0,0,0)" stroke-width="1" opacity="0.7686274509803922" d="M 206.5 70 L 200.5 77 L 206.5 70 Z "></path><path fill="rgb(0,0,0)" stroke="rgb(0,0,0)" stroke-width="1" opacity="0.7686274509803922" d="M 254.5 70 L 248.5 77 L 254.5 70 Z "></path><path fill="rgb(0,0,0)" stroke="rgb(0,0,0)" stroke-width="1" opacity="0.7686274509803922" d="M 314.5 75 L 322.5 84 L 314.5 75 Z "></path><path fill="rgb(0,0,0)" stroke="rgb(0,0,0)" stroke-width="1" opacity="0.7686274509803922" d="M 194.5 81 L 188.5 88 L 194.5 81 Z "></path><path fill="rgb(0,0,0)" stroke="rgb(0,0,0)" stroke-width="1" opacity="0.7686274509803922" d="M 242.5 81 L 235.5 89 L 242.5 81 Z "></path><path fill="rgb(0,0,0)" stroke="rgb(0,0,0)" stroke-width="1" opacity="0.7686274509803922" d="M 274.5 82 L 283.5 92 L 274.5 82 Z "></path><path fill="rgb(0,0,0)" stroke="rgb(0,0,0)" stroke-width="1" opacity="0.7686274509803922" d="M 329.5 89 L 338.5 99 L 329.5 89 Z "></path><path fill="rgb(0,0,0)" stroke="rgb(0,0,0)" stroke-width="1" opacity="0.7686274509803922" d="M 182.5 92 L 175.5 100 L 182.5 92 Z "></path><path fill="rgb(0,0,0)" stroke="rgb(0,0,0)" stroke-width="1" opacity="0.7686274509803922" d="M 230.5 92 L 223.5 100 L 230.5 92 Z "></path><path fill="rgb(0,0,0)" stroke="rgb(0,0,0)" stroke-width="1" opacity="0.7686274509803922" d="M 290.5 97 L 298.5 106 L 290.5 97 Z "></path><path fill="rgb(0,0,0)" stroke="rgb(0,0,0)" stroke-width="1" opacity="0.7686274509803922" d="M 170.5 103 L 163.5 111 L 170.5 103 Z "></path><path fill="rgb(0,0,0)" stroke="rgb(0,0,0)" stroke-width="1" opacity="0.7686274509803922" d="M 217.5 104 L 211.5 111 L 217.5 104 Z "></path><path fill="rgb(0,0,0)" stroke="rgb(0,0,0)" stroke-width="1" opacity="0.7686274509803922" d="M 345.5 104 L 353.5 113 L 345.5 104 Z "></path><path fill="rgb(0,0,0)" stroke="rgb(0,0,0)" stroke-width="1" opacity="0.7686274509803922" d="M 305.5 111 L 314.5 121 L 305.5 111 Z "></path><path fill="rgb(0,0,0)" stroke="rgb(0,0,0)" stroke-width="1" opacity="0.7686274509803922" d="M 157.5 115 L 151.5 122 L 157.5 115 Z "></path><path fill="rgb(0,0,0)" stroke="rgb(0,0,0)" stroke-width="1" opacity="0.7686274509803922" d="M 205.5 115 L 198.5 123 L 205.5 115 Z "></path><path fill="rgb(0,0,0)" stroke="rgb(0,0,0)" stroke-width="1" opacity="0.7686274509803922" d="M 360.5 118 L 369.5 128 L 360.5 118 Z "></path><path fill="rgb(0,0,0)" stroke="rgb(0,0,0)" stroke-width="1" opacity="0.7686274509803922" d="M 145.5 126 L 138.5 134 L 145.5 126 Z "></path><path fill="rgb(0,0,0)" stroke="rgb(0,0,0)" stroke-width="1" opacity="0.7686274509803922" d="M 193.5 126 L 186.5 134 L 193.5 126 Z "></path><path fill="rgb(0,0,0)" stroke="rgb(0,0,0)" stroke-width="1" opacity="0.7686274509803922" d="M 321.5 126 L 330.5 136 L 321.5 126 Z "></path><path fill="rgb(0,0,0)" stroke="rgb(0,0,0)" stroke-width="1" opacity="0.7686274509803922" d="M 376.5 133 L 384.5 142 L 376.5 133 Z "></path><path fill="rgb(0,0,0)" stroke="rgb(0,0,0)" stroke-width="1" opacity="0.7686274509803922" d="M 133.5 137 L 126.5 145 L 133.5 137 Z "></path><path fill="rgb(0,0,0)" stroke="rgb(0,0,0)" stroke-width="1" opacity="0.7686274509803922" d="M 180.5 138 L 174.5 145 L 180.5 138 Z "></path><path fill="rgb(0,0,0)" stroke="rgb(0,0,0)" stroke-width="1" opacity="0.7686274509803922" d="M 336.5 140 L 345.5 150 L 336.5 140 Z "></path><path fill="rgb(0,0,0)" stroke="rgb(0,0,0)" stroke-width="1" opacity="0.7686274509803922" d="M 391.5 147 L 400.5 157 L 391.5 147 Z "></path><path fill="rgb(0,0,0)" stroke="rgb(0,0,0)" stroke-width="1" opacity="0.7686274509803922" d="M 120.5 149 L 114.5 156 L 120.5 149 Z "></path><path fill="rgb(0,0,0)" stroke="rgb(0,0,0)" stroke-width="1" opacity="0.7686274509803922" d="M 168.5 149 L 162.5 156 L 168.5 149 Z "></path><path fill="rgb(0,0,0)" stroke="rgb(0,0,0)" stroke-width="1" opacity="0.7686274509803922" d="M 352.5 155 L 361.5 165 L 352.5 155 Z "></path><path fill="rgb(0,0,0)" stroke="rgb(0,0,0)" stroke-width="1" opacity="0.7686274509803922" d="M 108.5 160 L 101.5 168 L 108.5 160 Z "></path><path fill="rgb(0,0,0)" stroke="rgb(0,0,0)" stroke-width="1" opacity="0.7686274509803922" d="M 156.5 160 L 149.5 168 L 156.5 160 Z "></path><path fill="rgb(0,0,0)" stroke="rgb(0,0,0)" stroke-width="1" opacity="0.7686274509803922" d="M 407.5 162 L 415.5 171 L 407.5 162 Z "></path><path fill="rgb(0,0,0)" stroke="rgb(0,0,0)" stroke-width="1" opacity="0.7686274509803922" d="M 368.5 170 L 376.5 179 L 368.5 170 Z "></path><path fill="rgb(0,0,0)" stroke="rgb(0,0,0)" stroke-width="1" opacity="0.7686274509803922" d="M 96.5 171 L 89.5 179 L 96.5 171 Z "></path><path fill="rgb(0,0,0)" stroke="rgb(0,0,0)" stroke-width="1" opacity="0.7686274509803922" d="M 143.5 172 L 137.5 179 L 143.5 172 Z "></path><path fill="rgb(0,0,0)" stroke="rgb(0,0,0)" stroke-width="1" opacity="0.7686274509803922" d="M 422.5 176 L 431.5 186 L 422.5 176 Z "></path><path fill="rgb(0,0,0)" stroke="rgb(0,0,0)" stroke-width="1" opacity="0.7686274509803922" d="M 83.5 183 L 77.5 190 L 83.5 183 Z "></path><path fill="rgb(0,0,0)" stroke="rgb(0,0,0)" stroke-width="1" opacity="0.7686274509803922" d="M 131.5 183 L 125.5 190 L 131.5 183 Z "></path><path fill="rgb(0,0,0)" stroke="rgb(0,0,0)" stroke-width="1" opacity="0.7686274509803922" d="M 383.5 184 L 392.5 194 L 383.5 184 Z "></path><path fill="rgb(0,0,0)" stroke="rgb(0,0,0)" stroke-width="1" opacity="0.7686274509803922" d="M 438.5 191 L 447.5 201 L 438.5 191 Z "></path><path fill="rgb(0,0,0)" stroke="rgb(0,0,0)" stroke-width="1" opacity="0.7686274509803922" d="M 71.5 194 L 65.5 201 L 71.5 194 Z "></path><path fill="rgb(0,0,0)" stroke="rgb(0,0,0)" stroke-width="1" opacity="0.7686274509803922" d="M 119.5 194 L 112.5 202 L 119.5 194 Z "></path><path fill="rgb(0,0,0)" stroke="rgb(0,0,0)" stroke-width="1" opacity="0.7686274509803922" d="M 399.5 199 L 407.5 208 L 399.5 199 Z "></path><path fill="rgb(0,0,0)" stroke="rgb(0,0,0)" stroke-width="1" opacity="0.7686274509803922" d="M 59.5 205 L 52.5 213 L 59.5 205 Z "></path><path fill="rgb(0,0,0)" stroke="rgb(0,0,0)" stroke-width="1" opacity="0.7686274509803922" d="M 453.5 205 L 462.5 215 L 453.5 205 Z "></path><path fill="rgb(0,0,0)" stroke="rgb(0,0,0)" stroke-width="1" opacity="0.7686274509803922" d="M 106.5 206 L 100.5 213 L 106.5 206 Z "></path><path fill="rgb(0,0,0)" stroke="rgb(0,0,0)" stroke-width="1" opacity="0.7686274509803922" d="M 414.5 213 L 421.5 221 L 414.5 213 Z "></path><path fill="rgb(0,0,0)" stroke="rgb(0,0,0)" stroke-width="1" opacity="0.7686274509803922" d="M 47.5 216 L 40.5 224 L 47.5 216 Z "></path><path fill="rgb(0,0,0)" stroke="rgb(0,0,0)" stroke-width="1" opacity="0.7686274509803922" d="M 94.5 218 L 95 450 L 184 450.5 L 94 451 L 94.5 218 Z "></path><path fill="rgb(0,0,0)" stroke="rgb(0,0,0)" stroke-width="1" opacity="0.7686274509803922" d="M 469.5 220 L 478.5 230 L 469.5 220 Z "></path><path fill="rgb(0,0,0)" stroke="rgb(0,0,0)" stroke-width="1" opacity="0.7686274509803922" d="M 34.5 228 L 28.5 235 L 34.5 228 Z "></path><path fill="rgb(0,0,0)" stroke="rgb(0,0,0)" stroke-width="1" opacity="0.7686274509803922" d="M 485.5 235 L 493.5 244 L 485.5 235 Z "></path><path fill="rgb(0,0,0)" stroke="rgb(0,0,0)" stroke-width="1" opacity="0.7686274509803922" d="M 22.5 239 L 15.5 247 L 22.5 239 Z "></path><path fill="rgb(0,0,0)" stroke="rgb(0,0,0)" stroke-width="1" opacity="0.7686274509803922" d="M 500.5 249 L 508.5 258 L 500.5 249 Z "></path><path fill="rgb(0,0,0)" stroke="rgb(0,0,0)" stroke-width="1" opacity="0.7686274509803922" d="M 10.5 250 L 3.5 258 L 10.5 250 Z "></path><path fill="rgb(0,0,0)" stroke="rgb(0,0,0)" stroke-width="1" opacity="0.7686274509803922" d="M 57.5 251 L 51.5 258 L 57.5 251 Z "></path><path fill="rgb(0,0,0)" stroke="rgb(0,0,0)" stroke-width="1" opacity="0.7686274509803922" d="M 454.5 251 L 455 469.5 L 454 469.5 L 454.5 251 Z "></path><path fill="rgb(0,0,0)" stroke="rgb(0,0,0)" stroke-width="1" opacity="0.7686274509803922" d="M 461.5 257 L 470.5 267 L 461.5 257 Z "></path><path fill="rgb(0,0,0)" stroke="rgb(0,0,0)" stroke-width="1" opacity="0.7686274509803922" d="M 2.5 259 L 2 260.5 L 1.5 262 L 1 260.5 L 2.5 259 Z "></path><path fill="rgb(0,0,0)" stroke="rgb(0,0,0)" stroke-width="1" opacity="0.7686274509803922" d="M 509.5 259 L 511 261.5 L 510 261.5 L 509.5 259 Z "></path><path fill="rgb(0,0,0)" stroke="rgb(0,0,0)" stroke-width="1" opacity="0.7686274509803922" d="M 45.5 262 L 38.5 270 L 45.5 262 Z "></path><path fill="rgb(0,0,0)" stroke="rgb(0,0,0)" stroke-width="1" opacity="0.7686274509803922" d="M 0.5 263 L 1 265.5 L 0 265.5 L 0.5 263 Z "></path><path fill="rgb(0,0,0)" stroke="rgb(0,0,0)" stroke-width="1" opacity="0.7686274509803922" d="M 511.5 263 L 512 265.5 L 511 265.5 L 511.5 263 Z "></path><path fill="rgb(0,0,0)" stroke="rgb(0,0,0)" stroke-width="1" opacity="0.7686274509803922" d="M 0.5 269 L 1 271.5 L 0 271.5 L 0.5 269 Z "></path><path fill="rgb(0,0,0)" stroke="rgb(0,0,0)" stroke-width="1" opacity="0.7686274509803922" d="M 511.5 269 L 512 271.5 L 511 271.5 L 511.5 269 Z "></path><path fill="rgb(0,0,0)" stroke="rgb(0,0,0)" stroke-width="1" opacity="0.7686274509803922" d="M 477.5 272 L 484.5 280 L 477.5 272 Z "></path><path fill="rgb(0,0,0)" stroke="rgb(0,0,0)" stroke-width="1" opacity="0.7686274509803922" d="M 33.5 273 L 27.5 280 L 33.5 273 Z "></path><path fill="rgb(0,0,0)" stroke="rgb(0,0,0)" stroke-width="1" opacity="0.7686274509803922" d="M 3.5 277 L 6.5 281 L 3.5 277 Z "></path><path fill="rgb(0,0,0)" stroke="rgb(0,0,0)" stroke-width="1" opacity="0.7686274509803922" d="M 508.5 277 L 505.5 281 L 508.5 277 Z "></path><path fill="rgb(0,0,0)" stroke="rgb(0,0,0)" stroke-width="1" opacity="0.7686274509803922" d="M 13.5 283 L 20 283.5 L 13.5 284 L 13.5 283 Z "></path><path fill="rgb(0,0,0)" stroke="rgb(0,0,0)" stroke-width="1" opacity="0.7686274509803922" d="M 492.5 283 L 499 283.5 L 492.5 284 L 492.5 283 Z "></path><path fill="rgb(0,0,0)" stroke="rgb(0,0,0)" stroke-width="1" opacity="0.7686274509803922" d="M 191.5 333 L 190.5 335 L 191.5 333 Z "></path><path fill="rgb(0,0,0)" stroke="rgb(0,0,0)" stroke-width="1" opacity="0.7686274509803922" d="M 324.5 333 L 328.5 338 L 324.5 333 Z "></path><path fill="rgb(0,0,0)" stroke="rgb(0,0,0)" stroke-width="1" opacity="0.7686274509803922" d="M 187.5 337 L 186.5 339 L 187.5 337 Z "></path><path fill="rgb(0,0,0)" stroke="rgb(0,0,0)" stroke-width="1" opacity="0.7686274509803922" d="M 329.5 339 L 331 341.5 L 330 341.5 L 329.5 339 Z "></path><path fill="rgb(0,0,0)" stroke="rgb(0,0,0)" stroke-width="1" opacity="0.7686274509803922" d="M 331.5 343 L 332 450 L 422 450.5 L 332.5 451 L 331 449.5 L 331.5 343 Z "></path><path fill="rgb(0,0,0)" stroke="rgb(0,0,0)" stroke-width="1" opacity="0.7686274509803922" d="M 216 363 L 298.5 363 L 300 364.5 L 299.5 470 L 299 364 L 217 364 L 217 469.5 L 216 469.5 L 216 363 Z "></path><path fill="rgb(0,0,0)" stroke="rgb(0,0,0)" stroke-width="1" opacity="0.7686274509803922" d="M 302.5 476 L 305.5 480 L 302.5 476 Z "></path><path fill="rgb(0,0,0)" stroke="rgb(0,0,0)" stroke-width="1" opacity="0.7686274509803922" d="M 212.5 477 L 210.5 480 L 212.5 477 Z "></path><path fill="rgb(0,0,0)" stroke="rgb(0,0,0)" stroke-width="1" opacity="0.7686274509803922" d="M 450.5 477 L 448.5 480 L 450.5 477 Z "></path><path fill="rgb(0,0,0)" stroke="rgb(0,0,0)" stroke-width="1" opacity="0.7686274509803922" d="M 68.5 479 L 69.5 481 L 68.5 479 Z "></path><path fill="rgb(0,0,0)" stroke="rgb(0,0,0)" stroke-width="1" opacity="0.7686274509803922" d="M 307.5 480 L 308.5 482 L 307.5 480 Z "></path><path fill="rgb(0,0,0)" stroke="rgb(0,0,0)" stroke-width="1" opacity="0.7686274509803922" d="M 202.5 482 L 205 482.5 L 202.5 483 L 202.5 482 Z "></path><path fill="rgb(0,0,0)" stroke="rgb(0,0,0)" stroke-width="1" opacity="0.7686274509803922" d="M 311.5 482 L 314 482.5 L 311.5 483 L 311.5 482 Z "></path><path fill="rgb(0,0,0)" stroke="rgb(0,0,0)" stroke-width="1" opacity="0.7686274509803922" d="M 440.5 482 L 443 482.5 L 440.5 483 L 440.5 482 Z "></path><path fill="rgb(0,0,0)" stroke="rgb(0,0,0)" stroke-width="1" opacity="0" d="M 0 0 L 512 0 L 512 262.5 L 511 262.5 Q 508.3 253.2 500.5 249 L 269.5 33 L 262.5 29 L 254.5 29 Q 247.5 31 243.5 36 L 3 257.5 L 0.5 263 L 0 0 Z "></path><path fill="rgb(0,0,0)" stroke="rgb(0,0,0)" stroke-width="1" opacity="0" d="M 257.5 68 L 422 221.5 L 422 450 L 332 450 L 332 343.5 Q 329.8 336.8 324.5 333 L 319.5 331 L 195.5 331 L 186 338.5 L 184 343.5 L 184 450 L 95 450 L 95 217.5 L 257.5 68 Z "></path><path fill="rgb(0,0,0)" stroke="rgb(0,0,0)" stroke-width="1" opacity="0" d="M 60.5 249 L 62 249.5 L 62 471.5 L 69.5 481 L 74.5 483 L 204.5 483 L 213 477.5 L 217 469.5 L 217 364 L 299 364 L 299 469.5 Q 300.6 476.5 305.5 480 L 311.5 483 L 442.5 483 L 451 477.5 L 455 469.5 L 455.5 252 L 484.5 280 Q 488.5 285 498.5 284 Q 505.5 282.5 509 277.5 L 511.5 272 L 512 512 L 0 512 L 0 272.5 L 1 272.5 Q 2.3 278.3 6.5 281 Q 10.6 284.9 19.5 284 L 27.5 280 L 60.5 249 Z "></path><path fill="rgb(0,0,0)" stroke="rgb(0,0,0)" stroke-width="1" opacity="1" d="M 256.5 29 Q 263.5 29 267.5 32 L 277.5 41 L 509 258.5 L 512 268.5 Q 510.5 277 504.5 281 Q 500.2 284.7 490.5 283 L 486.5 281 L 454.5 251 L 454 470.5 Q 452.5 477 447.5 480 L 439.5 483 L 314.5 483 L 309.5 482 L 302 475.5 L 300 471.5 L 300 364.5 L 298.5 363 L 216 363 L 216 471.5 L 209.5 480 L 201.5 483 L 76.5 483 Q 69 481.5 65 476.5 L 62 469.5 L 61.5 248 L 25.5 281 Q 21.2 284.7 11.5 283 L 3 276.5 L 0 266.5 L 3 258.5 L 14.5 247 L 247.5 33 L 256.5 29 Z M 258 68 L 94 219 L 94 451 L 184 451 L 184 346 L 188 337 L 198 331 L 319 331 L 324 333 L 331 343 L 331 450 L 333 451 L 422 451 L 422 221 L 260 68 L 258 68 Z "></path></svg>